<mxfile host="app.diagrams.net" modified="2023-01-06T06:46:24.423Z" agent="5.0 (Windows NT 10.0; Win64; x64) AppleWebKit/537.36 (KHTML, like Gecko) Chrome/108.0.0.0 Safari/537.36" version="20.7.4" etag="NWBppBMB8awJjeNQTxeH" type="github">
  <diagram id="GGh0PMK7TENtvQgCUDVG" name="第 1 页">
    <mxGraphModel dx="724" dy="357" grid="1" gridSize="10" guides="1" tooltips="1" connect="1" arrows="1" fold="1" page="1" pageScale="1" pageWidth="827" pageHeight="1169" math="0" shadow="0">
      <root>
        <mxCell id="0" />
        <mxCell id="1" parent="0" />
        <mxCell id="SIEWy0c5TQ75hRiFOTAF-9" style="edgeStyle=orthogonalEdgeStyle;rounded=0;orthogonalLoop=1;jettySize=auto;html=1;strokeColor=#000000;" edge="1" parent="1" source="SIEWy0c5TQ75hRiFOTAF-1" target="SIEWy0c5TQ75hRiFOTAF-8">
          <mxGeometry relative="1" as="geometry" />
        </mxCell>
        <mxCell id="SIEWy0c5TQ75hRiFOTAF-12" style="edgeStyle=orthogonalEdgeStyle;rounded=0;orthogonalLoop=1;jettySize=auto;html=1;entryX=0;entryY=0.5;entryDx=0;entryDy=0;strokeColor=#000000;" edge="1" parent="1" source="SIEWy0c5TQ75hRiFOTAF-1" target="SIEWy0c5TQ75hRiFOTAF-11">
          <mxGeometry relative="1" as="geometry">
            <Array as="points">
              <mxPoint x="260" y="75" />
            </Array>
          </mxGeometry>
        </mxCell>
        <mxCell id="SIEWy0c5TQ75hRiFOTAF-1" value="解析中" style="rounded=1;whiteSpace=wrap;html=1;" vertex="1" parent="1">
          <mxGeometry x="230" y="200" width="70" height="30" as="geometry" />
        </mxCell>
        <mxCell id="SIEWy0c5TQ75hRiFOTAF-4" value="" style="ellipse;html=1;shape=startState;fillColor=#000000;strokeColor=#000000;" vertex="1" parent="1">
          <mxGeometry x="140" y="200" width="30" height="30" as="geometry" />
        </mxCell>
        <mxCell id="SIEWy0c5TQ75hRiFOTAF-5" value="" style="edgeStyle=orthogonalEdgeStyle;html=1;verticalAlign=bottom;endArrow=open;endSize=8;strokeColor=#000000;rounded=0;entryX=0;entryY=0.5;entryDx=0;entryDy=0;" edge="1" source="SIEWy0c5TQ75hRiFOTAF-4" parent="1" target="SIEWy0c5TQ75hRiFOTAF-1">
          <mxGeometry relative="1" as="geometry">
            <mxPoint x="230" y="225" as="targetPoint" />
          </mxGeometry>
        </mxCell>
        <mxCell id="SIEWy0c5TQ75hRiFOTAF-7" value="上传TR" style="text;html=1;align=center;verticalAlign=middle;resizable=0;points=[];autosize=1;strokeColor=none;fillColor=none;" vertex="1" parent="1">
          <mxGeometry x="160" y="185" width="60" height="30" as="geometry" />
        </mxCell>
        <mxCell id="SIEWy0c5TQ75hRiFOTAF-13" style="edgeStyle=orthogonalEdgeStyle;rounded=0;orthogonalLoop=1;jettySize=auto;html=1;entryX=0;entryY=0.5;entryDx=0;entryDy=0;strokeColor=#000000;" edge="1" parent="1" source="SIEWy0c5TQ75hRiFOTAF-8" target="SIEWy0c5TQ75hRiFOTAF-10">
          <mxGeometry relative="1" as="geometry" />
        </mxCell>
        <mxCell id="SIEWy0c5TQ75hRiFOTAF-8" value="待审核" style="rounded=1;whiteSpace=wrap;html=1;" vertex="1" parent="1">
          <mxGeometry x="344" y="200" width="70" height="30" as="geometry" />
        </mxCell>
        <mxCell id="SIEWy0c5TQ75hRiFOTAF-20" style="edgeStyle=orthogonalEdgeStyle;rounded=0;orthogonalLoop=1;jettySize=auto;html=1;strokeColor=#000000;" edge="1" parent="1" source="SIEWy0c5TQ75hRiFOTAF-10" target="SIEWy0c5TQ75hRiFOTAF-19">
          <mxGeometry relative="1" as="geometry" />
        </mxCell>
        <mxCell id="SIEWy0c5TQ75hRiFOTAF-10" value="待COC配置" style="rounded=1;whiteSpace=wrap;html=1;" vertex="1" parent="1">
          <mxGeometry x="450" y="200" width="70" height="30" as="geometry" />
        </mxCell>
        <mxCell id="SIEWy0c5TQ75hRiFOTAF-28" style="edgeStyle=orthogonalEdgeStyle;rounded=0;orthogonalLoop=1;jettySize=auto;html=1;strokeColor=#000000;" edge="1" parent="1" source="SIEWy0c5TQ75hRiFOTAF-11" target="SIEWy0c5TQ75hRiFOTAF-24">
          <mxGeometry relative="1" as="geometry" />
        </mxCell>
        <mxCell id="SIEWy0c5TQ75hRiFOTAF-11" value="解析失败" style="rounded=1;whiteSpace=wrap;html=1;" vertex="1" parent="1">
          <mxGeometry x="344" y="60" width="70" height="30" as="geometry" />
        </mxCell>
        <mxCell id="SIEWy0c5TQ75hRiFOTAF-67" style="edgeStyle=orthogonalEdgeStyle;rounded=0;orthogonalLoop=1;jettySize=auto;html=1;entryX=0;entryY=0.5;entryDx=0;entryDy=0;strokeColor=#000000;" edge="1" parent="1" source="SIEWy0c5TQ75hRiFOTAF-14" target="SIEWy0c5TQ75hRiFOTAF-24">
          <mxGeometry relative="1" as="geometry" />
        </mxCell>
        <mxCell id="SIEWy0c5TQ75hRiFOTAF-68" style="edgeStyle=orthogonalEdgeStyle;rounded=0;orthogonalLoop=1;jettySize=auto;html=1;entryX=0.5;entryY=1;entryDx=0;entryDy=0;strokeColor=#000000;" edge="1" parent="1" source="SIEWy0c5TQ75hRiFOTAF-14" target="SIEWy0c5TQ75hRiFOTAF-22">
          <mxGeometry relative="1" as="geometry" />
        </mxCell>
        <mxCell id="SIEWy0c5TQ75hRiFOTAF-14" value="有效" style="rounded=1;whiteSpace=wrap;html=1;" vertex="1" parent="1">
          <mxGeometry x="650" y="200" width="70" height="30" as="geometry" />
        </mxCell>
        <mxCell id="SIEWy0c5TQ75hRiFOTAF-19" value="COC进行中" style="rounded=1;whiteSpace=wrap;html=1;" vertex="1" parent="1">
          <mxGeometry x="550" y="200" width="70" height="30" as="geometry" />
        </mxCell>
        <mxCell id="SIEWy0c5TQ75hRiFOTAF-27" style="edgeStyle=orthogonalEdgeStyle;rounded=0;orthogonalLoop=1;jettySize=auto;html=1;strokeColor=#000000;" edge="1" parent="1" source="SIEWy0c5TQ75hRiFOTAF-22" target="SIEWy0c5TQ75hRiFOTAF-24">
          <mxGeometry relative="1" as="geometry" />
        </mxCell>
        <mxCell id="SIEWy0c5TQ75hRiFOTAF-22" value="失效" style="rounded=1;whiteSpace=wrap;html=1;" vertex="1" parent="1">
          <mxGeometry x="650" y="110" width="70" height="30" as="geometry" />
        </mxCell>
        <mxCell id="SIEWy0c5TQ75hRiFOTAF-24" value="" style="ellipse;html=1;shape=endState;fillColor=#000000;strokeColor=#ff0000;" vertex="1" parent="1">
          <mxGeometry x="750" y="200" width="30" height="30" as="geometry" />
        </mxCell>
        <mxCell id="SIEWy0c5TQ75hRiFOTAF-25" value="" style="endArrow=classic;html=1;rounded=0;strokeColor=#000000;exitX=1;exitY=0.5;exitDx=0;exitDy=0;entryX=0;entryY=0.5;entryDx=0;entryDy=0;edgeStyle=orthogonalEdgeStyle;" edge="1" parent="1" source="SIEWy0c5TQ75hRiFOTAF-19" target="SIEWy0c5TQ75hRiFOTAF-14">
          <mxGeometry width="50" height="50" relative="1" as="geometry">
            <mxPoint x="370" y="300" as="sourcePoint" />
            <mxPoint x="420" y="250" as="targetPoint" />
          </mxGeometry>
        </mxCell>
        <mxCell id="SIEWy0c5TQ75hRiFOTAF-29" value="开始" style="text;html=1;align=center;verticalAlign=middle;resizable=0;points=[];autosize=1;strokeColor=none;fillColor=none;" vertex="1" parent="1">
          <mxGeometry x="130" y="230" width="50" height="30" as="geometry" />
        </mxCell>
        <mxCell id="SIEWy0c5TQ75hRiFOTAF-30" value="结束" style="text;html=1;align=center;verticalAlign=middle;resizable=0;points=[];autosize=1;strokeColor=none;fillColor=none;" vertex="1" parent="1">
          <mxGeometry x="740" y="240" width="50" height="30" as="geometry" />
        </mxCell>
        <mxCell id="SIEWy0c5TQ75hRiFOTAF-31" value="" style="endArrow=classic;html=1;rounded=0;strokeColor=#000000;exitX=0.438;exitY=0.026;exitDx=0;exitDy=0;exitPerimeter=0;edgeStyle=orthogonalEdgeStyle;" edge="1" parent="1" source="SIEWy0c5TQ75hRiFOTAF-8" target="SIEWy0c5TQ75hRiFOTAF-22">
          <mxGeometry width="50" height="50" relative="1" as="geometry">
            <mxPoint x="370" y="300" as="sourcePoint" />
            <mxPoint x="420" y="250" as="targetPoint" />
            <Array as="points">
              <mxPoint x="375" y="180" />
              <mxPoint x="375" y="125" />
            </Array>
          </mxGeometry>
        </mxCell>
        <mxCell id="SIEWy0c5TQ75hRiFOTAF-32" value="解析异常" style="text;html=1;align=center;verticalAlign=middle;resizable=0;points=[];autosize=1;strokeColor=none;fillColor=none;" vertex="1" parent="1">
          <mxGeometry x="200" y="125" width="70" height="30" as="geometry" />
        </mxCell>
        <mxCell id="SIEWy0c5TQ75hRiFOTAF-34" value="解析成功" style="text;html=1;align=center;verticalAlign=middle;resizable=0;points=[];autosize=1;strokeColor=none;fillColor=none;" vertex="1" parent="1">
          <mxGeometry x="280" y="230" width="70" height="30" as="geometry" />
        </mxCell>
        <mxCell id="SIEWy0c5TQ75hRiFOTAF-35" value="审核通过" style="text;html=1;align=center;verticalAlign=middle;resizable=0;points=[];autosize=1;strokeColor=none;fillColor=none;" vertex="1" parent="1">
          <mxGeometry x="400" y="180" width="70" height="30" as="geometry" />
        </mxCell>
        <mxCell id="SIEWy0c5TQ75hRiFOTAF-36" value="配置" style="text;html=1;align=center;verticalAlign=middle;resizable=0;points=[];autosize=1;strokeColor=none;fillColor=none;" vertex="1" parent="1">
          <mxGeometry x="510" y="180" width="50" height="30" as="geometry" />
        </mxCell>
        <mxCell id="SIEWy0c5TQ75hRiFOTAF-37" value="审核不通过" style="text;html=1;align=center;verticalAlign=middle;resizable=0;points=[];autosize=1;strokeColor=none;fillColor=none;" vertex="1" parent="1">
          <mxGeometry x="470" y="90" width="80" height="30" as="geometry" />
        </mxCell>
        <mxCell id="SIEWy0c5TQ75hRiFOTAF-39" style="edgeStyle=orthogonalEdgeStyle;rounded=0;orthogonalLoop=1;jettySize=auto;html=1;strokeColor=#000000;" edge="1" parent="1" source="SIEWy0c5TQ75hRiFOTAF-42" target="SIEWy0c5TQ75hRiFOTAF-47">
          <mxGeometry relative="1" as="geometry" />
        </mxCell>
        <mxCell id="SIEWy0c5TQ75hRiFOTAF-40" style="edgeStyle=orthogonalEdgeStyle;rounded=0;orthogonalLoop=1;jettySize=auto;html=1;entryX=0;entryY=0.5;entryDx=0;entryDy=0;strokeColor=#000000;" edge="1" parent="1" source="SIEWy0c5TQ75hRiFOTAF-42" target="SIEWy0c5TQ75hRiFOTAF-51">
          <mxGeometry relative="1" as="geometry">
            <Array as="points">
              <mxPoint x="210" y="425" />
            </Array>
          </mxGeometry>
        </mxCell>
        <mxCell id="SIEWy0c5TQ75hRiFOTAF-41" style="edgeStyle=orthogonalEdgeStyle;rounded=0;orthogonalLoop=1;jettySize=auto;html=1;entryX=0;entryY=0.5;entryDx=0;entryDy=0;strokeColor=#000000;" edge="1" parent="1" source="SIEWy0c5TQ75hRiFOTAF-42" target="SIEWy0c5TQ75hRiFOTAF-53">
          <mxGeometry relative="1" as="geometry">
            <Array as="points">
              <mxPoint x="210" y="575" />
            </Array>
          </mxGeometry>
        </mxCell>
        <mxCell id="SIEWy0c5TQ75hRiFOTAF-42" value="解析中" style="rounded=1;whiteSpace=wrap;html=1;" vertex="1" parent="1">
          <mxGeometry x="180" y="470" width="70" height="30" as="geometry" />
        </mxCell>
        <mxCell id="SIEWy0c5TQ75hRiFOTAF-43" value="" style="ellipse;html=1;shape=startState;fillColor=#000000;strokeColor=#000000;" vertex="1" parent="1">
          <mxGeometry x="70" y="470" width="30" height="30" as="geometry" />
        </mxCell>
        <mxCell id="SIEWy0c5TQ75hRiFOTAF-44" value="" style="edgeStyle=orthogonalEdgeStyle;html=1;verticalAlign=bottom;endArrow=open;endSize=8;strokeColor=#000000;rounded=0;entryX=0;entryY=0.5;entryDx=0;entryDy=0;" edge="1" parent="1" source="SIEWy0c5TQ75hRiFOTAF-43" target="SIEWy0c5TQ75hRiFOTAF-42">
          <mxGeometry relative="1" as="geometry">
            <mxPoint x="180" y="495" as="targetPoint" />
          </mxGeometry>
        </mxCell>
        <mxCell id="SIEWy0c5TQ75hRiFOTAF-45" value="上传TR" style="text;html=1;align=center;verticalAlign=middle;resizable=0;points=[];autosize=1;strokeColor=none;fillColor=none;" vertex="1" parent="1">
          <mxGeometry x="110" y="455" width="60" height="30" as="geometry" />
        </mxCell>
        <mxCell id="SIEWy0c5TQ75hRiFOTAF-70" style="edgeStyle=orthogonalEdgeStyle;rounded=0;orthogonalLoop=1;jettySize=auto;html=1;strokeColor=#000000;" edge="1" parent="1" source="SIEWy0c5TQ75hRiFOTAF-47" target="SIEWy0c5TQ75hRiFOTAF-53">
          <mxGeometry relative="1" as="geometry" />
        </mxCell>
        <mxCell id="SIEWy0c5TQ75hRiFOTAF-47" value="待审核" style="rounded=1;whiteSpace=wrap;html=1;" vertex="1" parent="1">
          <mxGeometry x="294" y="470" width="70" height="30" as="geometry" />
        </mxCell>
        <mxCell id="SIEWy0c5TQ75hRiFOTAF-50" style="edgeStyle=orthogonalEdgeStyle;rounded=0;orthogonalLoop=1;jettySize=auto;html=1;strokeColor=#000000;" edge="1" parent="1" source="SIEWy0c5TQ75hRiFOTAF-51" target="SIEWy0c5TQ75hRiFOTAF-57">
          <mxGeometry relative="1" as="geometry" />
        </mxCell>
        <mxCell id="SIEWy0c5TQ75hRiFOTAF-51" value="解析失败" style="rounded=1;whiteSpace=wrap;html=1;" vertex="1" parent="1">
          <mxGeometry x="294" y="410" width="70" height="30" as="geometry" />
        </mxCell>
        <mxCell id="SIEWy0c5TQ75hRiFOTAF-52" style="edgeStyle=orthogonalEdgeStyle;rounded=0;orthogonalLoop=1;jettySize=auto;html=1;entryX=0;entryY=0.5;entryDx=0;entryDy=0;strokeColor=#000000;" edge="1" parent="1" source="SIEWy0c5TQ75hRiFOTAF-53" target="SIEWy0c5TQ75hRiFOTAF-56">
          <mxGeometry relative="1" as="geometry">
            <Array as="points" />
          </mxGeometry>
        </mxCell>
        <mxCell id="SIEWy0c5TQ75hRiFOTAF-53" value="有效" style="rounded=1;whiteSpace=wrap;html=1;" vertex="1" parent="1">
          <mxGeometry x="294" y="560" width="70" height="30" as="geometry" />
        </mxCell>
        <mxCell id="SIEWy0c5TQ75hRiFOTAF-55" style="edgeStyle=orthogonalEdgeStyle;rounded=0;orthogonalLoop=1;jettySize=auto;html=1;strokeColor=#000000;" edge="1" parent="1" source="SIEWy0c5TQ75hRiFOTAF-56" target="SIEWy0c5TQ75hRiFOTAF-57">
          <mxGeometry relative="1" as="geometry" />
        </mxCell>
        <mxCell id="SIEWy0c5TQ75hRiFOTAF-56" value="失效" style="rounded=1;whiteSpace=wrap;html=1;" vertex="1" parent="1">
          <mxGeometry x="500" y="560" width="70" height="30" as="geometry" />
        </mxCell>
        <mxCell id="SIEWy0c5TQ75hRiFOTAF-57" value="" style="ellipse;html=1;shape=endState;fillColor=#000000;strokeColor=#ff0000;" vertex="1" parent="1">
          <mxGeometry x="590" y="470" width="30" height="30" as="geometry" />
        </mxCell>
        <mxCell id="SIEWy0c5TQ75hRiFOTAF-59" value="开始" style="text;html=1;align=center;verticalAlign=middle;resizable=0;points=[];autosize=1;strokeColor=none;fillColor=none;" vertex="1" parent="1">
          <mxGeometry x="60" y="500" width="50" height="30" as="geometry" />
        </mxCell>
        <mxCell id="SIEWy0c5TQ75hRiFOTAF-60" value="" style="endArrow=classic;html=1;rounded=0;strokeColor=#000000;exitX=1;exitY=0.5;exitDx=0;exitDy=0;entryX=0.5;entryY=0;entryDx=0;entryDy=0;edgeStyle=orthogonalEdgeStyle;" edge="1" parent="1" source="SIEWy0c5TQ75hRiFOTAF-47" target="SIEWy0c5TQ75hRiFOTAF-56">
          <mxGeometry width="50" height="50" relative="1" as="geometry">
            <mxPoint x="320" y="570" as="sourcePoint" />
            <mxPoint x="370" y="520" as="targetPoint" />
            <Array as="points">
              <mxPoint x="535" y="485" />
            </Array>
          </mxGeometry>
        </mxCell>
        <mxCell id="SIEWy0c5TQ75hRiFOTAF-61" value="解析异常" style="text;html=1;align=center;verticalAlign=middle;resizable=0;points=[];autosize=1;strokeColor=none;fillColor=none;" vertex="1" parent="1">
          <mxGeometry x="180" y="400" width="70" height="30" as="geometry" />
        </mxCell>
        <mxCell id="SIEWy0c5TQ75hRiFOTAF-62" value="解析成功" style="text;html=1;align=center;verticalAlign=middle;resizable=0;points=[];autosize=1;strokeColor=none;fillColor=none;" vertex="1" parent="1">
          <mxGeometry x="240" y="500" width="70" height="30" as="geometry" />
        </mxCell>
        <mxCell id="SIEWy0c5TQ75hRiFOTAF-63" value="审核通过" style="text;html=1;align=center;verticalAlign=middle;resizable=0;points=[];autosize=1;strokeColor=none;fillColor=none;" vertex="1" parent="1">
          <mxGeometry x="330" y="520" width="70" height="30" as="geometry" />
        </mxCell>
        <mxCell id="SIEWy0c5TQ75hRiFOTAF-65" value="审核不通过" style="text;html=1;align=center;verticalAlign=middle;resizable=0;points=[];autosize=1;strokeColor=none;fillColor=none;" vertex="1" parent="1">
          <mxGeometry x="425" y="425" width="80" height="30" as="geometry" />
        </mxCell>
        <mxCell id="SIEWy0c5TQ75hRiFOTAF-66" value="版本失效" style="text;html=1;align=center;verticalAlign=middle;resizable=0;points=[];autosize=1;strokeColor=none;fillColor=none;" vertex="1" parent="1">
          <mxGeometry x="390" y="550" width="70" height="30" as="geometry" />
        </mxCell>
        <mxCell id="SIEWy0c5TQ75hRiFOTAF-69" value="版本失效" style="text;html=1;align=center;verticalAlign=middle;resizable=0;points=[];autosize=1;strokeColor=none;fillColor=none;" vertex="1" parent="1">
          <mxGeometry x="635" y="155" width="70" height="30" as="geometry" />
        </mxCell>
        <mxCell id="SIEWy0c5TQ75hRiFOTAF-71" value="结束" style="text;html=1;align=center;verticalAlign=middle;resizable=0;points=[];autosize=1;strokeColor=none;fillColor=none;" vertex="1" parent="1">
          <mxGeometry x="615" y="485" width="50" height="30" as="geometry" />
        </mxCell>
      </root>
    </mxGraphModel>
  </diagram>
</mxfile>
